<svg width="80" height="100" viewBox="0 0 80 100" xmlns="http://www.w3.org/2000/svg">
  <!-- Escudo UNA-PUNO -->
  <defs>
    <linearGradient id="shieldGradient" x1="0%" y1="0%" x2="100%" y2="100%">
      <stop offset="0%" style="stop-color:#1e40af;stop-opacity:1" />
      <stop offset="50%" style="stop-color:#3b82f6;stop-opacity:1" />
      <stop offset="100%" style="stop-color:#60a5fa;stop-opacity:1" />
    </linearGradient>
  </defs>
  
  <!-- Forma del escudo -->
  <path d="M40 5 L70 20 L70 60 Q70 80 40 95 Q10 80 10 60 L10 20 Z" fill="url(#shieldGradient)" stroke="#1e3a8a" stroke-width="2"/>
  
  <!-- Corona superior -->
  <rect x="35" y="8" width="10" height="6" fill="#fbbf24" stroke="#f59e0b" stroke-width="1"/>
  <polygon points="30,14 35,8 40,10 45,8 50,14" fill="#fbbf24" stroke="#f59e0b" stroke-width="1"/>
  
  <!-- Libro central -->
  <rect x="30" y="25" width="20" height="15" fill="#ffffff" stroke="#1e3a8a" stroke-width="1"/>
  <line x1="32" y1="28" x2="48" y2="28" stroke="#1e3a8a" stroke-width="1"/>
  <line x1="32" y1="31" x2="48" y2="31" stroke="#1e3a8a" stroke-width="1"/>
  <line x1="32" y1="34" x2="48" y2="34" stroke="#1e3a8a" stroke-width="1"/>
  <line x1="32" y1="37" x2="48" y2="37" stroke="#1e3a8a" stroke-width="1"/>
  
  <!-- Elementos decorativos -->
  <circle cx="25" cy="50" r="4" fill="#fbbf24" stroke="#f59e0b" stroke-width="1"/>
  <circle cx="55" cy="50" r="4" fill="#fbbf24" stroke="#f59e0b" stroke-width="1"/>
  
  <!-- Montañas (representando los Andes) -->
  <polygon points="20,65 30,55 40,60 50,55 60,65 60,75 20,75" fill="#10b981" stroke="#059669" stroke-width="1"/>
  
  <!-- Texto UNA -->
  <text x="40" y="85" font-family="Arial, sans-serif" font-size="8" font-weight="bold" text-anchor="middle" fill="#ffffff">UNA</text>
</svg>