<svg width="80" height="80" viewBox="0 0 80 80" xmlns="http://www.w3.org/2000/svg">
  <!-- Logo INFOUNA -->
  <defs>
    <linearGradient id="infounaGradient" x1="0%" y1="0%" x2="100%" y2="100%">
      <stop offset="0%" style="stop-color:#1e40af;stop-opacity:1" />
      <stop offset="50%" style="stop-color:#3b82f6;stop-opacity:1" />
      <stop offset="100%" style="stop-color:#60a5fa;stop-opacity:1" />
    </linearGradient>
    <linearGradient id="wheatGradient" x1="0%" y1="0%" x2="100%" y2="100%">
      <stop offset="0%" style="stop-color:#fbbf24;stop-opacity:1" />
      <stop offset="100%" style="stop-color:#f59e0b;stop-opacity:1" />
    </linearGradient>
  </defs>
  
  <!-- Círculo exterior -->
  <circle cx="40" cy="40" r="38" fill="url(#infounaGradient)" stroke="#1e3a8a" stroke-width="2"/>
  
  <!-- Círculo interior blanco -->
  <circle cx="40" cy="40" r="32" fill="#ffffff" stroke="#1e3a8a" stroke-width="1"/>
  
  <!-- Elementos de trigo (corona de laurel) -->
  <g fill="url(#wheatGradient)" stroke="#f59e0b" stroke-width="0.5">
    <!-- Lado izquierdo -->
    <path d="M15 25 Q20 20 25 25 Q20 30 15 25" />
    <path d="M12 35 Q17 30 22 35 Q17 40 12 35" />
    <path d="M15 45 Q20 40 25 45 Q20 50 15 45" />
    <path d="M18 55 Q23 50 28 55 Q23 60 18 55" />
    
    <!-- Lado derecho -->
    <path d="M65 25 Q60 20 55 25 Q60 30 65 25" />
    <path d="M68 35 Q63 30 58 35 Q63 40 68 35" />
    <path d="M65 45 Q60 40 55 45 Q60 50 65 45" />
    <path d="M62 55 Q57 50 52 55 Q57 60 62 55" />
  </g>
  
  <!-- Computadora central -->
  <rect x="30" y="30" width="20" height="15" fill="#1e3a8a" stroke="#1e40af" stroke-width="1" rx="2"/>
  <rect x="32" y="32" width="16" height="10" fill="#60a5fa" stroke="#3b82f6" stroke-width="0.5"/>
  
  <!-- Líneas de código en la pantalla -->
  <line x1="34" y1="35" x2="46" y2="35" stroke="#ffffff" stroke-width="0.8"/>
  <line x1="34" y1="37" x2="44" y2="37" stroke="#ffffff" stroke-width="0.8"/>
  <line x1="34" y1="39" x2="46" y2="39" stroke="#ffffff" stroke-width="0.8"/>
  
  <!-- Base de la computadora -->
  <rect x="35" y="45" width="10" height="3" fill="#1e3a8a" rx="1"/>
  <rect x="37" y="48" width="6" height="2" fill="#1e3a8a" rx="1"/>
  
  <!-- Texto INFOUNA (simplificado) -->
  <text x="40" y="60" font-family="Arial, sans-serif" font-size="6" font-weight="bold" text-anchor="middle" fill="#1e3a8a">INFOUNA</text>
  
  <!-- Estrellas decorativas -->
  <polygon points="40,15 41,18 44,18 42,20 43,23 40,21 37,23 38,20 36,18 39,18" fill="#fbbf24" stroke="#f59e0b" stroke-width="0.5"/>
</svg>